<svg width="109" height="20" viewBox="0 0 109 20" fill="none" xmlns="http://www.w3.org/2000/svg">
<g clip-path="url(#clip0_1_83)">
<path d="M16.9401 19.1202H12.4941L5.05806 7.86216V19.1202H0.612061V0.868164H5.05806L12.4941 12.1782V0.868164H16.9401V19.1202ZM32.0449 0.868164V4.43017H24.6089V8.27816H30.1729V11.7362H24.6089V19.1202H20.1629V0.868164H32.0449ZM47.5116 0.868164V4.43017H42.6756V19.1202H38.2296V4.43017H33.3936V0.868164H47.5116Z" fill="white"/>
<path d="M70.4129 0.868164V19.1202H65.9669V8.17416L61.8849 19.1202H58.2969L54.1889 8.14816V19.1202H49.7429V0.868164H54.9949L60.1169 13.5042L65.1869 0.868164H70.4129ZM84.972 15.8962H78.16L77.068 19.1202H72.414L79.018 0.868164H84.166L90.77 19.1202H86.064L84.972 15.8962ZM83.828 12.4642L81.566 5.78217L79.33 12.4642H83.828ZM103.362 19.1202L97.226 11.0602V19.1202H92.78V0.868164H97.226V8.87616L103.31 0.868164H108.536L101.464 9.81217L108.796 19.1202H103.362Z" fill="#6345ED"/>
</g>
<defs>
<clipPath id="clip0_1_83">
<rect width="109" height="19" fill="white" transform="translate(0 0.120117)"/>
</clipPath>
</defs>
</svg>
