<svg width="17" height="17" viewBox="0 0 17 17" fill="none" xmlns="http://www.w3.org/2000/svg">
<g id="Link" clip-path="url(#clip0_1_370)">
<path id="Vector" d="M12.9771 12.6464L15.5905 10.0331C16.0171 9.57086 16.2305 9.01975 16.2305 8.37975C16.2305 7.73975 16.0171 7.18864 15.5905 6.72642L12.9771 4.11309C12.7994 3.93531 12.5682 3.84642 12.2838 3.84642C11.9994 3.84642 11.7594 3.9442 11.5638 4.13975C11.3682 4.33531 11.2705 4.56642 11.2705 4.83309C11.2705 5.09975 11.3771 5.33975 11.5905 5.55309L13.4038 7.36642L1.2438 7.41975C0.959358 7.41975 0.719358 7.51753 0.523802 7.71309C0.328247 7.90864 0.230469 8.13086 0.230469 8.37975C0.230469 8.6642 0.328247 8.9042 0.523802 9.09975C0.719358 9.29531 0.959358 9.39309 1.2438 9.39309H13.4038L11.5905 11.2064C11.3771 11.4198 11.2705 11.6598 11.2705 11.9264C11.2705 12.1931 11.3682 12.4242 11.5638 12.6198C11.7594 12.8153 11.9905 12.9131 12.2571 12.9131C12.5238 12.9131 12.7638 12.8242 12.9771 12.6464Z" fill="white"/>
</g>
<defs>
<clipPath id="clip0_1_370">
<rect width="16" height="16" fill="white" transform="matrix(1 0 0 -1 0.230469 16.3799)"/>
</clipPath>
</defs>
</svg>
