<svg width="12" height="13" viewBox="0 0 12 13" fill="none" xmlns="http://www.w3.org/2000/svg">
<path d="M7.27 12.7C7.16334 12.7 7.07 12.6733 6.99 12.62L4.99 11.1C4.85667 10.9933 4.77667 10.86 4.75 10.7V7.89995L1.27 3.93995C1.00334 3.64662 0.843338 3.31328 0.790004 2.93995C0.736671 2.56662 0.790004 2.20662 0.950004 1.85995C1.11 1.51328 1.35 1.23328 1.67 1.01995C1.99 0.806618 2.33667 0.699951 2.71 0.699951H9.83C10.2033 0.699951 10.55 0.806618 10.87 1.01995C11.19 1.23328 11.43 1.51328 11.59 1.85995C11.75 2.20662 11.8033 2.56662 11.75 2.93995C11.6967 3.31328 11.5367 3.64662 11.27 3.93995L7.79 7.89995V12.18C7.79 12.34 7.73667 12.4666 7.63 12.56C7.52334 12.6533 7.40334 12.7 7.27 12.7Z" fill="white"/>
</svg>
