<svg width="15" height="13" viewBox="0 0 15 13" fill="none" xmlns="http://www.w3.org/2000/svg">
<path d="M10.8841 0.619942C10.1996 0.619942 9.56965 0.791053 8.99409 1.13328C8.41854 1.4755 7.9752 1.94216 7.66409 2.53327C7.35298 1.94216 6.90965 1.4755 6.33409 1.13328C5.75854 0.791053 5.12076 0.627719 4.42076 0.643274C3.72076 0.658831 3.0752 0.853274 2.48409 1.22661C1.89298 1.59994 1.43409 2.09772 1.10743 2.71994C0.780759 3.34216 0.632981 4.01105 0.664092 4.72661C0.664092 5.93994 1.22409 7.27772 2.34409 8.73994C3.2152 9.85994 4.36631 11.0266 5.79743 12.2399C6.32631 12.7066 6.94854 12.9399 7.66409 12.9399C8.37965 12.9399 9.00187 12.7066 9.53076 12.2399C10.9619 11.0266 12.113 9.85994 12.9841 8.73994C14.1041 7.27772 14.6641 5.93994 14.6641 4.72661C14.6952 4.01105 14.5474 3.34216 14.2208 2.71994C13.8941 2.09772 13.4352 1.59994 12.8441 1.22661C12.253 0.853274 11.5996 0.651052 10.8841 0.619942Z" fill="#403C5E"/>
</svg>
