<svg width="26" height="26" viewBox="0 0 26 26" fill="none" xmlns="http://www.w3.org/2000/svg">
<path d="M25.25 0.666666C25.1389 0.555555 25.0278 0.5 24.9167 0.5C22.25 0.5 20.0417 0.861111 18.2917 1.58333C16.5417 2.30556 14.7222 3.63889 12.8333 5.58333C12 6.36111 11.0833 7.33333 10.0833 8.5L4.33333 8.83333C4.16667 8.83333 4.02778 8.91667 3.91667 9.08333L0.500001 15C0.38889 15.1667 0.416668 15.3611 0.583334 15.5833L1.58333 16.5C1.63889 16.6111 1.75 16.6667 1.91667 16.6667H2L6.25 15.3333L10.5833 19.6667L9.25 23.9167C9.19445 24.0833 9.25 24.25 9.41667 24.4167L10.3333 25.3333C10.4444 25.4444 10.5556 25.5 10.6667 25.5C10.7778 25.5 10.8889 25.4722 11 25.4167L16.8333 22C17 21.8889 17.0833 21.75 17.0833 21.5833L17.4167 15.8333C18.5833 14.8333 19.5833 13.9167 20.4167 13.0833C22.1944 11.25 23.4722 9.41667 24.25 7.58333C25.0278 5.75 25.4167 3.55556 25.4167 1C25.4167 0.888887 25.3611 0.777777 25.25 0.666666ZM21.5833 6.41667C21.3056 6.75 20.9583 6.91667 20.5417 6.91667C20.125 6.91667 19.7778 6.76389 19.5 6.45833C19.2222 6.15278 19.0833 5.80556 19.0833 5.41667C19.0833 5.02778 19.2222 4.68056 19.5 4.375C19.7778 4.06944 20.125 3.91667 20.5417 3.91667C20.9583 3.91667 21.3056 4.06944 21.5833 4.375C21.8611 4.68056 22 5.02778 22 5.41667C22 5.80556 21.8611 6.13889 21.5833 6.41667Z" fill="white"/>
</svg>
