<svg width="11" height="11" viewBox="0 0 11 11" fill="none" xmlns="http://www.w3.org/2000/svg">
<path d="M0.5 5.77002C0.5 6.30335 0.688889 6.75891 1.06667 7.13669C1.44444 7.51446 1.89444 7.70335 2.41667 7.70335C2.93889 7.70335 3.38889 7.53669 3.76667 7.20335L6.63333 8.50335C6.61111 8.59224 6.6 8.69224 6.6 8.80335C6.6 9.35891 6.78889 9.82558 7.16667 10.2034C7.54445 10.5811 8.00556 10.77 8.55 10.77C9.09445 10.77 9.55556 10.5811 9.93333 10.2034C10.3111 9.82558 10.5 9.37002 10.5 8.83669C10.5 8.30335 10.3111 7.84224 9.93333 7.45335C9.55556 7.06446 9.1 6.87002 8.56667 6.87002C8.23333 6.87002 7.92778 6.94224 7.65 7.08669C7.37222 7.23113 7.13333 7.43669 6.93333 7.70335L4.23333 6.50335C4.43333 6.01446 4.43333 5.52557 4.23333 5.03669L6.93333 3.80335C7.24444 4.2478 7.66667 4.52002 8.2 4.62002C8.73333 4.72002 9.21667 4.61446 9.65 4.30335C10.0833 3.99224 10.35 3.57557 10.45 3.05335C10.55 2.53113 10.4444 2.0478 10.1333 1.60335C9.82222 1.15891 9.40556 0.892241 8.88333 0.803352C8.36111 0.714463 7.87778 0.814464 7.43333 1.10335C7.16667 1.28113 6.96111 1.51446 6.81667 1.80335C6.67222 2.09224 6.6 2.39224 6.6 2.70335C6.6 2.81446 6.61111 2.92557 6.63333 3.03669L3.76667 4.33669C3.36667 3.98113 2.9 3.80891 2.36667 3.82002C1.83333 3.83113 1.38889 4.03113 1.03333 4.42002C0.677778 4.80891 0.5 5.25891 0.5 5.77002Z" fill="#59606B"/>
</svg>
