<svg width="14" height="15" viewBox="0 0 14 15" fill="none" xmlns="http://www.w3.org/2000/svg">
<path d="M7.88667 12.4767C6.76667 12.4767 5.74 12.2044 4.80667 11.66C3.87333 11.1156 3.13444 10.3767 2.59 9.44333C2.04556 8.51 1.77333 7.49111 1.77333 6.38667C1.77333 5.28222 2.04556 4.25556 2.59 3.30667C3.13444 2.35778 3.87333 1.61111 4.80667 1.06667C5.74 0.522223 6.75889 0.25 7.86333 0.25C8.96778 0.25 9.99444 0.522223 10.9433 1.06667C11.8922 1.61111 12.6389 2.35778 13.1833 3.30667C13.7278 4.25556 14 5.28222 14 6.38667C14 7.49111 13.7278 8.51 13.1833 9.44333C12.6389 10.3767 11.8922 11.1156 10.9433 11.66C9.99444 12.2044 8.97556 12.4767 7.88667 12.4767ZM7.88667 2.02333C7.07778 2.02333 6.33889 2.21778 5.67 2.60667C5.00111 2.99556 4.47222 3.52444 4.08333 4.19333C3.69444 4.86222 3.5 5.59333 3.5 6.38667C3.5 7.18 3.69444 7.91111 4.08333 8.58C4.47222 9.24889 5.00111 9.77778 5.67 10.1667C6.33889 10.5556 7.07 10.75 7.86333 10.75C8.65667 10.75 9.38778 10.5556 10.0567 10.1667C10.7256 9.77778 11.2622 9.24889 11.6667 8.58C12.0711 7.91111 12.2733 7.18 12.2733 6.38667C12.2733 5.59333 12.0711 4.86222 11.6667 4.19333C11.2622 3.52444 10.7256 2.99556 10.0567 2.60667C9.38778 2.21778 8.66444 2.02333 7.88667 2.02333ZM0.886667 14.25C0.637778 14.25 0.427778 14.1644 0.256667 13.9933C0.0855556 13.8222 0 13.62 0 13.3867C0 13.1533 0.0777778 12.9433 0.233333 12.7567L3.54667 9.44333C3.73333 9.28778 3.95111 9.21 4.2 9.21C4.44889 9.21 4.65889 9.30333 4.83 9.49C5.00111 9.67667 5.07889 9.88667 5.06333 10.12C5.04778 10.3533 4.96222 10.5633 4.80667 10.75L1.49333 14.0167C1.33778 14.1722 1.13556 14.25 0.886667 14.25Z" fill="#59606B"/>
</svg>
