<svg width="11" height="11" viewBox="0 0 11 11" fill="none" xmlns="http://www.w3.org/2000/svg">
<path d="M5.5 10.77C5.03333 10.77 4.63889 10.6089 4.31667 10.2867C3.99444 9.96446 3.83333 9.57002 3.83333 9.10335V7.43669H2.16667C1.7 7.43669 1.30556 7.27557 0.983333 6.95335C0.661111 6.63113 0.5 6.23669 0.5 5.77002C0.5 5.30335 0.661111 4.90891 0.983333 4.58669C1.30556 4.26446 1.7 4.10335 2.16667 4.10335H3.83333V2.43669C3.83333 1.97002 3.99444 1.57557 4.31667 1.25335C4.63889 0.93113 5.03333 0.770019 5.5 0.770019C5.96667 0.770019 6.36111 0.93113 6.68333 1.25335C7.00556 1.57557 7.16667 1.97002 7.16667 2.43669V4.10335H8.83333C9.3 4.10335 9.69444 4.26446 10.0167 4.58669C10.3389 4.90891 10.5 5.30335 10.5 5.77002C10.5 6.23669 10.3389 6.63113 10.0167 6.95335C9.69444 7.27557 9.3 7.43669 8.83333 7.43669H7.16667V9.10335C7.16667 9.57002 7.00556 9.96446 6.68333 10.2867C6.36111 10.6089 5.96667 10.77 5.5 10.77Z" fill="#59606B"/>
</svg>
